<svg width="70" height="27" viewBox="0 0 70 27" fill="none" xmlns="http://www.w3.org/2000/svg">
<path d="M16.6158 0C13.8821 0 11.2604 1.08905 9.32741 3.02756L3.01894 9.35406C1.08594 11.2926 0 13.9217 0 16.6632C0 22.3721 4.61474 27 10.3073 27C13.041 27 15.6627 25.9109 17.5957 23.9724L21.9593 19.5963C21.9594 19.5964 21.9593 19.5962 21.9593 19.5963L34.6733 6.84594C35.5965 5.92012 36.8486 5.4 38.1542 5.4C40.34 5.4 42.1931 6.82867 42.8356 8.80566L46.8481 4.78166C45.0176 1.90651 41.8079 0 38.1542 0C35.4205 0 32.7989 1.08905 30.8659 3.02756L13.7882 20.1541C12.865 21.0799 11.6129 21.6 10.3073 21.6C7.58857 21.6 5.38462 19.3898 5.38462 16.6632C5.38462 15.3539 5.90325 14.0982 6.82644 13.1724L13.1349 6.84594C14.0581 5.92012 15.3102 5.4 16.6158 5.4C18.8016 5.4 20.6547 6.82873 21.2971 8.80579L25.3098 4.78176C23.4793 1.90656 20.2696 0 16.6158 0Z" fill="url(#paint0_radial_211_88)"/>
<path d="M35.3268 20.1541C34.4036 21.0799 33.1515 21.6 31.8459 21.6C29.6604 21.6 27.8074 20.1717 27.1648 18.195L23.1523 22.2189C24.9829 25.0937 28.1924 27 31.8459 27C34.5796 27 37.2013 25.9109 39.1342 23.9724L56.2119 6.84594C57.1351 5.92012 58.3872 5.4 59.6928 5.4C62.4116 5.4 64.6155 7.61026 64.6155 10.3368C64.6155 11.6461 64.0969 12.9018 63.1737 13.8276L56.8652 20.1541C55.942 21.0799 54.6899 21.6 53.3844 21.6C51.1986 21.6 49.3456 20.1714 48.7031 18.1946L44.6906 22.2186C46.5211 25.0936 49.7307 27 53.3844 27C56.118 27 58.7397 25.9109 60.6727 23.9724L66.9811 17.6459C68.9141 15.7074 70.0001 13.0783 70.0001 10.3368C70.0001 4.62793 65.3854 0 59.6928 0C56.9591 0 54.3374 1.08905 52.4044 3.02756L35.3268 20.1541Z" fill="url(#paint1_radial_211_88)"/>
<defs>
<radialGradient id="paint0_radial_211_88" cx="0" cy="0" r="1" gradientUnits="userSpaceOnUse" gradientTransform="rotate(29.9562) scale(54.0717 1064.71)">
<stop stop-color="#7200B8"/>
<stop offset="0.5625" stop-color="#0084B8"/>
<stop offset="1" stop-color="#3DC8FF"/>
</radialGradient>
<radialGradient id="paint1_radial_211_88" cx="0" cy="0" r="1" gradientUnits="userSpaceOnUse" gradientTransform="translate(23.1523) rotate(29.9563) scale(54.0714 1064.71)">
<stop stop-color="#7200B8"/>
<stop offset="0.5625" stop-color="#0084B8"/>
<stop offset="1" stop-color="#3DC8FF"/>
</radialGradient>
</defs>
</svg>
