<svg width="78" height="35" viewBox="0 0 78 35" fill="none" xmlns="http://www.w3.org/2000/svg">
<g filter="url(#filter0_d_116_73)">
<path d="M20.6158 0C17.8821 0 15.2604 1.08905 13.3274 3.02756L7.01894 9.35406C5.08594 11.2926 4 13.9217 4 16.6632C4 22.3721 8.61474 27 14.3073 27C17.041 27 19.6627 25.9109 21.5957 23.9724L25.9593 19.5963C25.9594 19.5964 25.9593 19.5962 25.9593 19.5963L38.6733 6.84594C39.5965 5.92012 40.8486 5.4 42.1542 5.4C44.34 5.4 46.1931 6.82867 46.8356 8.80566L50.8481 4.78166C49.0176 1.90651 45.8079 0 42.1542 0C39.4205 0 36.7989 1.08905 34.8659 3.02756L17.7882 20.1541C16.865 21.0799 15.6129 21.6 14.3073 21.6C11.5886 21.6 9.38462 19.3898 9.38462 16.6632C9.38462 15.3539 9.90325 14.0982 10.8264 13.1724L17.1349 6.84594C18.0581 5.92012 19.3102 5.4 20.6158 5.4C22.8016 5.4 24.6547 6.82873 25.2971 8.80579L29.3098 4.78176C27.4793 1.90656 24.2696 0 20.6158 0Z" fill="url(#paint0_radial_116_73)"/>
<path d="M39.3267 20.1541C38.4035 21.0799 37.1514 21.6 35.8458 21.6C33.6602 21.6 31.8073 20.1717 31.1647 18.195L27.1522 22.2189C28.9828 25.0937 32.1923 27 35.8458 27C38.5795 27 41.2011 25.9109 43.1341 23.9724L60.2118 6.84594C61.135 5.92012 62.3871 5.4 63.6927 5.4C66.4115 5.4 68.6154 7.61026 68.6154 10.3368C68.6154 11.6461 68.0967 12.9018 67.1736 13.8276L60.8651 20.1541C59.9419 21.0799 58.6898 21.6 57.3842 21.6C55.1985 21.6 53.3455 20.1714 52.7029 18.1946L48.6905 22.2186C50.521 25.0936 53.7306 27 57.3842 27C60.1179 27 62.7396 25.9109 64.6726 23.9724L70.981 17.6459C72.914 15.7074 74 13.0783 74 10.3368C74 4.62793 69.3853 0 63.6927 0C60.959 0 58.3373 1.08905 56.4043 3.02756L39.3267 20.1541Z" fill="url(#paint1_radial_116_73)"/>
</g>
<defs>
<filter id="filter0_d_116_73" x="0" y="0" width="78" height="35" filterUnits="userSpaceOnUse" color-interpolation-filters="sRGB">
<feFlood flood-opacity="0" result="BackgroundImageFix"/>
<feColorMatrix in="SourceAlpha" type="matrix" values="0 0 0 0 0 0 0 0 0 0 0 0 0 0 0 0 0 0 127 0" result="hardAlpha"/>
<feOffset dy="4"/>
<feGaussianBlur stdDeviation="2"/>
<feComposite in2="hardAlpha" operator="out"/>
<feColorMatrix type="matrix" values="0 0 0 0 0 0 0 0 0 0 0 0 0 0 0 0 0 0 0.25 0"/>
<feBlend mode="normal" in2="BackgroundImageFix" result="effect1_dropShadow_116_73"/>
<feBlend mode="normal" in="SourceGraphic" in2="effect1_dropShadow_116_73" result="shape"/>
</filter>
<radialGradient id="paint0_radial_116_73" cx="0" cy="0" r="1" gradientUnits="userSpaceOnUse" gradientTransform="translate(4) rotate(29.9562) scale(54.0717 1064.71)">
<stop stop-color="#7200B8"/>
<stop offset="0.5625" stop-color="#0084B8"/>
<stop offset="1" stop-color="#3DC8FF"/>
</radialGradient>
<radialGradient id="paint1_radial_116_73" cx="0" cy="0" r="1" gradientUnits="userSpaceOnUse" gradientTransform="translate(27.1522) rotate(29.9563) scale(54.0714 1064.71)">
<stop stop-color="#7200B8"/>
<stop offset="0.5625" stop-color="#0084B8"/>
<stop offset="1" stop-color="#3DC8FF"/>
</radialGradient>
</defs>
</svg>
